<svg width="752" height="614" viewBox="0 0 752 614" fill="none" xmlns="http://www.w3.org/2000/svg">
<g id="clean-up">
<g clip-path="url(#clip0)">
<g id="bas tele">
<path id="Vector" d="M712.07 501.38C725.22 548.2 598.63 655.17 375.91 595.45C196.58 547.37 39.74 527 39.74 501.38C39.74 475.76 190.25 502.63 375.91 502.63C561.57 502.63 705.14 476.7 712.07 501.38Z" fill="#3F3D56"/>
<path id="Vector_2" opacity="0.1" d="M712.07 501.38C725.22 548.2 598.63 655.17 375.91 595.45C196.58 547.37 39.74 527 39.74 501.38C39.74 475.76 190.25 502.63 375.91 502.63C561.57 502.63 705.14 476.7 712.07 501.38Z" fill="black"/>
<path id="Vector_3" d="M712.07 501.38C725.22 548.2 598.63 607.5 375.91 547.79C196.58 499.71 39.74 527 39.74 501.38C39.74 475.76 190.25 455 375.91 455C561.57 455 705.14 476.7 712.07 501.38Z" fill="#3F3D56"/>
<path id="Vector_4" opacity="0.1" d="M484 535C498.359 535 510 530.971 510 526C510 521.029 498.359 517 484 517C469.641 517 458 521.029 458 526C458 530.971 469.641 535 484 535Z" fill="black"/>
<path id="Vector_5" opacity="0.1" d="M590 535C604.359 535 616 530.971 616 526C616 521.029 604.359 517 590 517C575.641 517 564 521.029 564 526C564 530.971 575.641 535 590 535Z" fill="black"/>
<path id="Vector_6" opacity="0.1" d="M376 509C422.944 509 461 498.703 461 486C461 473.297 422.944 463 376 463C329.056 463 291 473.297 291 486C291 498.703 329.056 509 376 509Z" fill="black"/>
</g>
<path id="tele" d="M752 416V0H0V416H347V471.61C329.67 473.68 318 477.56 318 482C318 488.63 344 494 376 494C408 494 434 488.63 434 482C434 477.56 422.33 473.68 405 471.61V416H752Z" fill="#3F3D56"/>
<path id="ecran" d="M713 14.57H39V387.42H713V14.57Z" fill="#F2F2F2"/>
<path id="ecran bis" opacity="0.1" d="M713 15C713 15 433 44 382 156C331 268 39 387 39 387H713V15Z" fill="black"/>
<path id="echelle" d="M587.25 193V220.65H483.75V194.65H480.75V526H483.75V466.69H587.25V526H590.25V193H587.25ZM587.25 223.65V269.26H483.75V223.65H587.25ZM483.75 366.47V320.86H587.25V366.47H483.75ZM587.25 369.47V415.08H483.75V369.47H587.25ZM483.75 317.86V272.26H587.25V317.86H483.75ZM483.75 463.69V418.08H587.25V463.69H483.75Z" fill="#2F2E41"/>
<g id="produit">
<path id="Vector_7" d="M451.12 199.58V203.73C451.12 203.73 448.12 204.91 448.12 209.65C448.12 214.39 445.75 232.14 445.75 232.14C445.75 232.14 449.9 235.7 453.45 234.51C455.422 233.906 457.241 232.883 458.78 231.51L459.37 213.16L457 208.46V200.18L451.12 199.58Z" fill="#F17575"/>
<path id="Vector_8" d="M445.79 192.68L452.6 197.13L450.21 201L445.79 196.84V192.68Z" fill="#F17575"/>
</g>
<g id="bras">
<path id="Vector_9" d="M564.38 35C564.38 35 554.08 36.18 554.08 40.92C554.08 45.66 545.85 63.42 545.85 63.42C545.85 63.42 560.26 66.97 572.62 65.79C584.98 64.61 591.15 62.79 591.15 62.79L593.21 44.43L585 39.74L564.38 35Z" fill="#F17575"/>
<path id="Vector_10" d="M565.38 76.44V65.19C565.38 65.19 553 40.33 563 40.33C573 40.33 574.25 62.83 574.25 62.83V78.83L565.38 76.44Z" fill="#FFB8B8"/>
<path id="Vector_11" d="M527.37 120.52C527.85 118.8 530.69 113.98 532.79 113.02C534.16 112.4 538.12 113.02 538.72 111.88C539.32 110.74 542.28 110.72 544.66 109.55C547.04 108.38 544.08 106.55 547.05 105.42C550.02 104.29 550.05 105.42 550.05 102.48C550.05 99.54 557.79 96.61 558.4 93.06C559.01 89.51 565 73 565 73L576.22 76.63L573.12 97.92C573.12 97.92 573.05 108.57 567.67 115.64C562.29 122.71 545.34 145.53 539.42 146.08C533.5 146.63 525.38 127.65 527.37 120.52Z" fill="#575A88"/>
</g>
<g id="bonhomme">
<path id="Vector_12" d="M490.87 218.24C490.87 218.24 487.3 222.94 492.48 268.88C497.66 314.82 494.67 348.25 504.48 347.79C504.48 347.79 501.91 357.79 510.26 358.12C518.61 358.45 522.41 359.07 523.06 356.77C523.71 354.47 524.73 343.82 522.46 343.93C522.46 343.93 522.6 346.93 523.55 334.79C524.5 322.65 521.82 265.23 525.24 257.51L538.63 284.89C538.63 284.89 539.23 297.73 541.78 303.66C544.33 309.59 549.72 344.17 549.72 344.17L549.22 349.49C549.22 349.49 567.48 351.66 568.1 348.61C568.72 345.56 568.5 341.02 567.67 339.54C566.84 338.06 566.85 338.07 568.22 334.98C568.827 333.817 569.176 332.538 569.245 331.228C569.314 329.919 569.101 328.61 568.62 327.39C567.76 325.16 565.47 276.07 565.47 276.07C565.47 276.07 561.17 216.47 551.97 213.87C542.77 211.27 490.87 218.24 490.87 218.24Z" fill="#2F2E41"/>
<path id="Vector_13" d="M507 352.22L501.46 363.08C501.46 363.08 491.86 360.08 494.15 368.72C503.365 369.004 512.587 368.445 521.7 367.05C521.7 367.05 525.55 368.39 526.2 366.05C526.85 363.71 523.83 355.95 521.57 356.05C519.31 356.15 507 352.22 507 352.22Z" fill="#2F2E41"/>
<path id="Vector_14" d="M550.63 347.15C550.63 347.15 545.22 361.03 547.52 361.68C549.82 362.33 570.36 364.4 571.9 365.08C573.44 365.76 581.04 366.17 581.58 361.6C582.12 357.03 577.52 355.74 577.52 355.74C577.52 355.74 569.15 354.62 566.52 347.17C563.89 339.72 550.63 347.15 550.63 347.15Z" fill="#2F2E41"/>
<path id="Vector_15" d="M491 97.32C491 97.32 495.17 118.96 493.5 123.12C491.83 127.28 516.81 121.45 516.81 121.45C516.81 121.45 511.81 99.81 512.64 94.82C513.47 89.83 491 97.32 491 97.32Z" fill="#FFB8B8"/>
<path id="Vector_16" d="M499.36 105.63C508.092 105.63 515.17 98.5516 515.17 89.82C515.17 81.0884 508.092 74.01 499.36 74.01C490.628 74.01 483.55 81.0884 483.55 89.82C483.55 98.5516 490.628 105.63 499.36 105.63Z" fill="#FFB8B8"/>
<path id="Vector_17" d="M458.82 194.26C458.82 194.26 452.31 190.7 451.12 194.26C449.93 197.82 446.38 205.5 451.12 206.1C455.86 206.7 460.59 202.54 460.59 202.54L458.82 194.26Z" fill="#FFB8B8"/>
<path id="Vector_18" d="M498.88 70.29C497.55 70.0429 496.182 70.1045 494.88 70.47C493.849 70.9248 492.899 71.5465 492.07 72.31C490.562 73.5101 488.952 74.5774 487.26 75.5C485.847 76.1075 484.574 76.9993 483.52 78.12C483.075 78.7321 482.721 79.4059 482.47 80.12C480.849 84.2517 480.412 88.7538 481.21 93.12C481.299 93.7418 481.484 94.3458 481.76 94.91C482.63 96.5 484.54 97.13 486.15 97.91C489.2 99.5 491.52 102.17 494.03 104.53C494.958 105.462 496.003 106.269 497.14 106.93C500.71 108.88 505.09 108.24 509.14 107.55C509.71 107.55 510.257 107.323 510.66 106.92C511.063 106.517 511.29 105.97 511.29 105.4V105.4L514.46 91.15C515.034 89.0389 515.307 86.8574 515.27 84.67C515.05 81.21 513.18 76.42 510.64 73.96C507.68 71.16 502.74 70.7 498.88 70.29Z" fill="#2F2E41"/>
<path id="Vector_19" d="M487.23 124.4C487.23 124.4 488.42 116.11 495.52 115.52C499.537 115.138 503.505 114.344 507.36 113.15C507.96 113.15 515.65 113.74 519.2 117.29C519.2 117.29 521.57 120.84 522.76 118.48C523.95 116.12 523.94 114.92 526.31 116.11C528.68 117.3 528.68 112.56 532.82 113.11C536.96 113.66 547.62 140.34 547.62 140.34L544.07 144.48C544.07 144.48 539.33 176.48 547.62 190.07C555.91 203.66 559.46 218.49 551.17 221.45C542.88 224.41 484.87 251.05 487.23 234.45C489.59 217.85 487.83 191.83 485.46 191.23C483.09 190.63 470.07 143.87 470.07 143.87C470.591 140.901 471.835 138.107 473.693 135.733C475.55 133.359 477.964 131.479 480.72 130.26C490.19 126.17 487.23 124.4 487.23 124.4Z" fill="#575A88"/>
<path id="Vector_20" d="M473.62 141L470.07 144C470.07 144 468.88 157 468.88 157.62C468.88 158.24 470.07 165.32 468.88 165.91C467.69 166.5 465.33 178.34 465.88 178.91V180.69L457.59 193.69V206.1L477.13 193.66C477.13 193.66 488.38 192.48 486.6 182.41C484.82 172.34 473.62 141 473.62 141Z" fill="#575A88"/>
</g>
<g id="bouton">
<path id="bouton t&#195;&#169;l&#195;&#169;" d="M376 416C382.075 416 387 411.075 387 405C387 398.925 382.075 394 376 394C369.925 394 365 398.925 365 405C365 411.075 369.925 416 376 416Z" fill="#EE7576"/>
</g>
<g id="pchit">
<path id="Vector_21" d="M442.38 189.21L436.76 183.26" stroke="#F2F2F2" stroke-linecap="round" stroke-linejoin="round"/>
<path id="Vector_22" d="M441.36 191.91L433.82 187.77" stroke="#F2F2F2" stroke-linecap="round" stroke-linejoin="round"/>
<path id="Vector_23" d="M441.38 194.56L432.96 194.33" stroke="#F2F2F2" stroke-linecap="round" stroke-linejoin="round"/>
</g>
</g>
</g>
<defs>
<clipPath id="clip0">
<rect width="752" height="613.12" fill="white"/>
</clipPath>
</defs>
</svg>
