<svg width="444" height="592" viewBox="0 0 444 592" fill="none" xmlns="http://www.w3.org/2000/svg">
<g id="Fichier 1 1">
<g clip-path="url(#clip0)">
<g id="OBJECTS">
<path id="Vector" d="M315.533 457.25C316.461 457.306 317.339 457.691 318.008 458.336C318.363 458.89 318.564 459.529 318.592 460.186C320.403 474.585 320.967 491.237 312.997 503.363C305.027 515.49 295.104 526.33 287.819 538.878C284.527 544.758 281.531 550.799 278.843 556.978L265.378 586.701C248.459 623.959 231.472 661.204 214.419 698.435C212.728 702.095 213.03 704.186 209.608 706.318C206.187 708.45 198.559 703.02 197.05 699.259C198.64 654.715 220.859 620.487 234.887 578.154C242.271 555.766 247.409 532.7 250.223 509.296C250.898 505.306 250.945 501.235 250.364 497.23C249.559 493.006 247.466 489.185 246.782 484.862C245.936 479.492 247.405 474.042 248.794 468.773C250.183 463.504 250.968 454.394 255.033 450.553C259.521 446.33 267.451 449.628 272.704 450.553C289.288 453.63 299.049 454.797 315.533 457.25Z" fill="#212972"/>
<path id="Vector_2" d="M207.958 477.481C206.509 486.129 211.359 501.493 211.983 510.241C217.357 588.129 224.18 653.025 246.359 727.977C247.546 731.999 250.787 731.275 254.973 731.034C259.823 730.752 264.07 731.838 263.929 727.012C263.219 705.332 261.257 683.71 258.052 662.256C256.04 648.179 253 634.101 252.839 619.763C252.658 603.192 256.321 586.862 258.656 570.452C260.266 559.089 261.232 547.667 262.198 536.264C264.479 509.638 266.747 483.012 269.001 456.385C269.199 455.257 269.088 454.097 268.679 453.027C268.126 452.259 267.409 451.622 266.581 451.163C265.753 450.705 264.834 450.434 263.889 450.372C254.57 448.361 231.566 438.889 222.892 443.474C214.539 447.778 209.286 469.055 207.958 477.481Z" fill="#3A4584"/>
<path id="Vector_3" d="M317.062 458.718L310.199 428.03L232.089 445.606L317.062 458.718Z" fill="#F5B7A0"/>
<path id="Vector_4" d="M270.047 261.897L291.602 285.326C291.602 285.326 269.987 327.316 230.962 301.414L237.383 263.204L270.047 261.897Z" fill="#F5B7A0"/>
<path id="Vector_5" d="M283.693 221.495C283.31 231.852 275.844 263.727 275.844 263.727L267.793 269.076C263.696 271.793 258.965 273.406 254.06 273.758C249.155 274.111 244.242 273.191 239.798 271.087L230.057 266.402C230.057 266.402 208.179 220.349 216.914 209.288C224.522 199.635 264.311 196.618 273.006 204.884C276.226 207.84 283.854 217.051 283.693 221.495Z" fill="#F5B7A0"/>
<g id="arm-pen">
<path id="Vector_6" d="M200.5 298.5L143.977 273.099L122.985 164.502L112.701 170.998L123.489 282.711L182.809 316.117L190.336 315.433L200.5 298.5Z" fill="#F5B7A0"/>
<path id="Vector_7" d="M319.98 244.26L325.092 236.296L284.88 103.185L273.449 110.586L301.625 240.781L319.98 244.26Z" fill="#F5B7A0"/>
<g id="crayon">
<path id="Vector_8" d="M300.076 48.7059L69.49 194.145L91.347 228.695L321.188 79.6358L300.076 48.7059Z" fill="#E0B24C"/>
<path id="Vector_9" d="M91.3471 228.695L321.188 79.6358L315.452 71.2296L86.8589 221.596L91.3471 228.695Z" fill="#E0B24C"/>
<path id="Vector_10" d="M86.5167 221.515L316.358 72.4563L309.635 61.8179L81.0424 212.204L86.5167 221.515Z" fill="#E0B24C"/>
<path id="Vector_11" d="M91.347 228.695L84.4035 233.038C80.1403 235.767 75.0137 236.813 70.0213 235.973C65.0289 235.133 60.5279 232.467 57.3942 228.493C56.9379 227.947 56.5209 227.369 56.1464 226.764C53.263 222.187 52.3112 216.655 53.4993 211.379C54.6874 206.102 57.9187 201.511 62.4861 198.609L69.5101 194.165L80.9619 212.264L91.347 228.695Z" fill="#E0B24C"/>
<path id="Vector_12" d="M346.426 44L344.031 47.3786L321.188 79.6357L316.317 72.4965L315.452 71.2296L309.213 62.0994L300.076 48.7058L340.65 44.5832H340.71L346.426 44Z" fill="#E0B24C"/>
<path id="Vector_13" d="M91.3471 228.695L84.4035 233.038C80.1404 235.767 75.0137 236.813 70.0213 235.973C65.0289 235.133 60.5279 232.467 57.3942 228.493L80.962 212.264L91.3471 228.695Z" fill="#E0B24C"/>
<path id="Vector_14" d="M346.426 44L344.031 47.3786L321.188 79.6357L316.317 72.4965L315.452 71.2296L309.213 62.0994L340.71 44.5832L346.426 44Z" fill="#E0B24C"/>
<path id="mine" d="M346.426 44L344.031 47.3785C342.599 46.8932 341.395 45.8982 340.65 44.5832L346.426 44Z" fill="#E0B24C"/>
<path id="Vector_15" d="M300.076 48.7059L69.49 194.145L91.347 228.695L321.188 79.6358L300.076 48.7059Z" fill="#55608E"/>
<path id="Vector_16" d="M91.3471 228.695L321.188 79.6358L315.452 71.2296L86.8589 221.596L91.3471 228.695Z" fill="#212972"/>
<path id="Vector_17" d="M86.5167 221.515L316.358 72.4563L309.635 61.8179L81.0424 212.204L86.5167 221.515Z" fill="#323D7F"/>
<path id="Vector_18" d="M91.347 228.695L84.4035 233.038C80.1403 235.767 75.0137 236.813 70.0213 235.973C65.0289 235.133 60.5279 232.467 57.3942 228.493C56.9379 227.947 56.5209 227.369 56.1464 226.764C53.263 222.187 52.3112 216.655 53.4993 211.379C54.6874 206.102 57.9187 201.511 62.4861 198.609L69.5101 194.165L80.9619 212.264L91.347 228.695Z" fill="#EFC865"/>
<path id="Vector_19" d="M346.426 44L344.031 47.3786L321.188 79.6357L316.317 72.4965L315.452 71.2296L309.213 62.0994L300.076 48.7058L340.65 44.5832H340.71L346.426 44Z" fill="#EFC865"/>
<path id="Vector_20" d="M91.3471 228.695L84.4035 233.038C80.1404 235.767 75.0137 236.813 70.0213 235.973C65.0289 235.133 60.5279 232.467 57.3942 228.493L80.962 212.264L91.3471 228.695Z" fill="#E0B24C"/>
<path id="Vector_21" d="M346.426 44L344.031 47.3786L321.188 79.6357L316.317 72.4965L315.452 71.2296L309.213 62.0994L340.71 44.5832L346.426 44Z" fill="#E0B24C"/>
<path id="mine_2" d="M346.426 44L344.031 47.3785C342.599 46.8932 341.395 45.8982 340.65 44.5832L346.426 44Z" fill="#4D4D4D"/>
</g>
<path id="Vector_22" d="M119.846 161.143L126.528 169.027L113.385 176.608L104.892 170.575L119.846 161.143Z" fill="#F39E81"/>
<path id="Vector_23" d="M301.666 92.2853L300.076 101.898L286.531 108.454L284.156 103.648L301.666 92.2853Z" fill="#F39E81"/>
</g>
<path id="Vector_24" d="M282.666 277.281C282.666 277.281 292.73 304.471 262.54 304.471C262.54 304.471 238.51 307.769 232.351 291.761L216.854 285.728L171.872 277.281L158.428 313.48L208.28 334.556L226.072 397.12L216.009 442.65C215.826 443.412 215.837 444.209 216.042 444.965C216.248 445.722 216.639 446.416 217.182 446.982C217.725 447.548 218.401 447.97 219.149 448.207C219.897 448.444 220.692 448.491 221.463 448.341L338.416 423.203C339.179 423.027 339.887 422.666 340.477 422.151C341.068 421.637 341.522 420.985 341.801 420.254C342.079 419.522 342.173 418.734 342.074 417.957C341.975 417.181 341.687 416.441 341.234 415.802L324.328 391.67C316.439 380.32 313.245 366.363 315.412 352.716L325.978 285.768L332.177 232.978L290.475 227.166L282.666 277.281Z" fill="#EA5F5A"/>
<path id="cheveux" fill-rule="evenodd" clip-rule="evenodd" d="M306.979 269.821C306.395 269.519 305.872 269.197 305.349 268.895C297.721 264.19 296.694 258.116 301.867 251.6C303.168 249.966 304.052 248.041 304.443 245.99C304.626 245.008 304.707 244.011 304.684 243.013C307.372 241.016 309.324 238.188 310.239 234.969C311.225 230.947 307.14 230.223 303.779 229.559C302.73 229.395 301.704 229.112 300.72 228.715H300.538C300.384 228.653 300.243 228.561 300.125 228.444C300.006 228.327 299.912 228.188 299.848 228.034C299.785 227.881 299.752 227.716 299.753 227.549C299.754 227.383 299.789 227.219 299.854 227.066C300.559 225.055 299.854 223.888 297.842 223.044C296.076 222.381 294.239 221.929 292.367 221.696C288.121 215.442 293.937 213.25 293.937 205.125C293.919 203.261 293.648 201.407 293.132 199.615C292.842 198.532 292.479 197.471 292.045 196.437C287.114 184.532 273.086 173.391 259.662 177.373C238.791 167.317 211.983 183.024 205.462 203.516C204.702 205.81 203.697 208.014 202.464 210.092C198.76 216.367 193.89 220.952 193.709 222.159C192.783 228.192 197.09 234.225 202.645 237.161C197.654 243.194 190.026 247.357 193.206 253.873C194.526 256.221 196.314 258.274 198.459 259.906C197.533 265.517 199.123 271.731 202.866 274.386C203.641 274.922 204.387 275.499 205.1 276.115C205.805 276.738 206.489 277.402 207.113 278.126C206.684 279.816 206.091 281.459 205.342 283.033L204.979 283.757C200.572 292.485 192.904 297.151 199.586 294.034C201.771 293.021 203.803 291.708 205.623 290.132C207.404 288.579 208.926 286.753 210.132 284.722C210.346 284.399 210.54 284.063 210.715 283.717C210.876 284.099 211.037 284.501 211.178 284.923C212.32 288.46 212.603 292.217 212.003 295.884C210.575 306.361 223.334 305.456 228.99 311.972C234.645 318.488 232.391 325.366 233.237 314.124C234.082 302.882 226.716 301.334 231.787 296.326L232.23 295.904C232.673 295.502 233.096 295.099 233.478 294.677C236.284 291.717 238.463 288.221 239.885 284.399C241.306 280.577 241.941 276.508 241.75 272.435C241.774 270.948 241.462 269.474 240.839 268.123C240.215 266.772 239.295 265.579 238.147 264.632C237.846 264.435 237.557 264.221 237.282 263.988C231.927 260.178 227.802 254.889 225.414 248.769C223.026 242.649 222.478 235.966 223.838 229.539C235.531 228.715 258.052 222.762 262.359 202.531C262.721 211.5 271.456 226.663 277.917 233.099C278.644 233.81 279.274 234.615 279.788 235.492C281.237 241.203 277.454 250.555 272 257.432C270.691 259.082 269.524 260.57 268.538 261.957C266.5 264.429 265.276 267.471 265.036 270.665C265.016 272.214 265.248 273.755 265.72 275.23C267.431 280.881 261.031 292.485 265.72 304.35C266.16 305.471 266.692 306.554 267.31 307.588C268.334 309.357 269.556 311.003 270.953 312.495C284.256 326.834 275.3 316.014 274.837 309.498C274.374 302.983 284.76 298.961 291.18 297.151C297.6 295.341 294.662 284.34 288.845 279.554C285.363 276.698 286.37 273.32 288.342 270.544C292.367 274.365 298.868 273.34 304.061 278.227C304.824 278.902 305.434 279.731 305.852 280.66C306.356 281.812 306.407 283.112 305.993 284.3C304.845 287.92 300.619 290.333 304.584 289.629C305.149 289.536 305.694 289.345 306.194 289.066C311.386 286.19 315.231 274.205 306.979 269.821ZM303.94 233.783C307.301 235.452 306.838 238.167 304.443 240.54C304.443 240.097 304.282 239.635 304.161 239.192C303.615 237.03 302.761 234.958 301.625 233.038C302.421 233.203 303.197 233.453 303.94 233.783V233.783ZM202.786 216.95C203.228 216.295 203.705 215.664 204.215 215.06C203.51 222.661 204.215 229.016 205.543 230.283L206.107 230.867C205.719 232.083 205.178 233.245 204.496 234.326C204.126 234.086 203.776 233.817 203.45 233.521C199.727 230.404 197.452 224.632 202.786 216.95ZM204.235 250.293H204.114C202.537 251.291 201.241 252.676 200.35 254.315C199.995 253.757 199.698 253.164 199.465 252.546C198.438 249.489 200.471 246.834 203.873 244.361C205.802 243.026 207.819 241.823 209.91 240.761C209.903 242.711 209.372 244.624 208.374 246.301C207.376 247.977 205.947 249.356 204.235 250.293V250.293Z" fill="#4D4D4D"/>
</g>
</g>
</g>
<defs>
<clipPath id="clip0">
<rect width="444" height="592" fill="white"/>
</clipPath>
</defs>
</svg>
